# xmcd
#
# Track frame offsets: 
#        150
#        18835
#        31100
#        42612
#        57155
#        69097
#        87795
#        102115
#        113947
#        126260
#        139182
#        158040
#        175650
#        189115
#        202260
#        218162
#        230570
#        241862
#        257787
#        270405
#        283352
#        298135
#        309662
#
# Disc length: 4341 seconds
#
# Revision: 3
# Processed by: cddbd v1.5.2PL0 Copyright (c) Steve Scherf et al.
# Submitted via: ExactAudioCopy v1.1
#
DISCID=4c10f317
DTITLE=Various Artist - The Best Country Ballads In The World Ever CD
DTITLE=1
DYEAR=1998
DGENRE=Country
TTITLE0=How Do I Live - Rimes, Leann
TTITLE1=Crazy - Cline, Patsy
TTITLE2=All I Have To Do Is Dream - Gentry and Campbell
TTITLE3=A Little Bit More - Dr Hook
TTITLE4=Stand By Your Man - Wynette, Tammy
TTITLE5=Islands In The Stream - Rogers and Parton
TTITLE6=Rhinestone Cowboy - Glen Campbell
TTITLE7=Jolene - Parton, Jolene
TTITLE8=What I've Got In Mind - Spears, Billie Jo
TTITLE9=If Not For You - Newton John, Olivia
TTITLE10=Angel Of The Morning - Newton, Juice
TTITLE11=Love Can Build A Bridge - Judds, The
TTITLE12=I Will Always Love You - Rogers, Kenny
TTITLE13=Behind Closed Doors - Rich, Charlie
TTITLE14=Always On My Mind - Nelson, Willie
TTITLE15=I Love You Because - Reeves, Jim
TTITLE16=Don't It Make My Brown Eyes Blue - Gayle, Crystal
TTITLE17=We're All Alone - Coolidge, Rita
TTITLE18=You're My Best Friend - Williams, Don
TTITLE19=I'll Never Fall In Love Again - Gentry, Bobbie
TTITLE20=Take Me Home Country Roads - Newton John, Olivia
TTITLE21=A Thing Called Love - Cash, Johnny
TTITLE22=Blanket On The Ground - Spears, Billie Jo
EXTD=CDDBSort:various,best_country_ballads_in_world_ever_disk_2_of_2 - 
EXTD=YEAR: 1998
EXTT0=
EXTT1=
EXTT2=
EXTT3=
EXTT4=
EXTT5=
EXTT6=
EXTT7=
EXTT8=
EXTT9=
EXTT10=
EXTT11=
EXTT12=
EXTT13=
EXTT14=
EXTT15=
EXTT16=
EXTT17=
EXTT18=
EXTT19=
EXTT20=
EXTT21=
EXTT22=
PLAYORDER=
